<?xml version="1.0" encoding="UTF-8" standalone="no"?>
<svg
   xmlns="http://www.w3.org/2000/svg"
   version="1.1"
   id="svg108"
   width="140"
   height="140">
  <defs
     id="defs112" />
  <g
     id="g1226"
     transform="matrix(0.9059927,0,0,0.90525634,103.40603,104.17992)">
    <g
       style="fill:#ffffff;fill-opacity:1;fill-rule:evenodd;stroke:#000000;stroke-width:1.5;stroke-linecap:butt;stroke-linejoin:round;stroke-miterlimit:4;stroke-dasharray:none;stroke-opacity:1"
       id="g327"
       transform="matrix(4.441876,0,0,4.441876,-136.8145,-136.18225)">
      <path
         d="m 9,36 c 3.39,-0.97 10.11,0.43 13.5,-2 3.39,2.43 10.11,1.03 13.5,2 0,0 1.65,0.54 3,2 -0.68,0.97 -1.65,0.99 -3,0.5 -3.39,-0.97 -10.11,0.46 -13.5,-1 C 19.11,38.96 12.39,37.53 9,38.5 7.65,38.99 6.68,38.97 6,38 7.35,36.54 9,36 9,36 Z"
         id="path321" />
      <path
         d="m 15,32 c 2.5,2.5 12.5,2.5 15,0 0.5,-1.5 0,-2 0,-2 0,-2.5 -2.5,-4 -2.5,-4 5.5,-1.5 6,-11.5 -5,-15.5 -11,4 -10.5,14 -5,15.5 0,0 -2.5,1.5 -2.5,4 0,0 -0.5,0.5 0,2 z"
         id="path323" />
      <path
         d="m 25,8 a 2.5,2.5 0 1 1 -5,0 2.5,2.5 0 1 1 5,0 z"
         id="path325" />
    </g>
    <path
       style="fill:none;fill-opacity:1;fill-rule:evenodd;stroke:#000000;stroke-width:6.66281;stroke-linecap:round;stroke-linejoin:miter;stroke-miterlimit:4;stroke-dasharray:none;stroke-opacity:1"
       d="M -70.18636,-2.92597 H -3.55822"
       id="path1214" />
    <path
       style="fill:none;fill-opacity:1;fill-rule:evenodd;stroke:#000000;stroke-width:6.66281;stroke-linecap:round;stroke-linejoin:miter;stroke-miterlimit:4;stroke-dasharray:none;stroke-opacity:1"
       d="m -59.08167,-20.693474 h 44.41876"
       id="path329" />
  </g>
  <path
     fill-rule="evenodd"
     clip-rule="evenodd"
     d="m 94.71931,56.370367 c 0,-0.768129 -3.347417,-0.901996 -3.773572,-2.064811 -8.76e-4,-0.0078 -8.76e-4,-0.01532 -0.0017,-0.02272 0.195289,-1.290261 3.447297,-1.979849 3.297509,-2.73069 -0.149796,-0.752815 -3.456687,-0.232661 -4.102842,-1.288285 -0.0043,-0.01037 -0.0062,-0.01927 -0.0094,-0.02914 -0.0514,-1.301128 2.995448,-2.608678 2.702757,-3.315061 -0.295616,-0.711322 -3.45272,0.451987 -4.283271,-0.471745 -8.75e-4,-0.002 -0.0017,-0.0039 -0.0035,-0.006 -0.326286,-1.266057 2.426396,-3.154026 1.999753,-3.791746 -0.428639,-0.641178 -3.308864,1.121815 -4.29762,0.367516 -0.566549,-1.178621 1.763933,-3.566493 1.221602,-4.108381 -0.545789,-0.545348 -3.025081,1.744715 -4.142367,1.198875 -0.788041,-1.044757 1.033241,-3.842131 0.395992,-4.268431 -0.642191,-0.428769 -2.62613,2.299944 -3.829434,1.982811 -0.9764,-0.870876 0.262512,-3.969574 -0.445931,-4.262502 -0.712399,-0.29589 -2.126315,2.768231 -3.368679,2.690183 -1.126677,-0.664395 -0.516621,-3.944383 -1.268571,-4.093563 -0.756881,-0.151156 -1.544921,3.129327 -2.777895,3.295795 -1.23693,-0.431733 -1.277469,-3.768528 -2.044736,-3.768528 -0.772219,0 -0.904713,3.371373 -2.081329,3.774949 -1.296246,-0.18277 -1.987882,-3.447443 -2.740818,-3.297771 -0.757385,0.150664 -0.228395,3.48647 -1.306636,4.108383 -1.306632,0.07063 -2.621175,-2.994471 -3.330604,-2.700555 -0.712399,0.295397 0.455813,3.460287 -0.477574,4.282754 -1.267574,0.326024 -3.156588,-2.424424 -3.79433,-1.998123 -0.641697,0.428273 1.123215,3.305673 0.367814,4.293622 -1.179081,0.568069 -3.570384,-1.7625 -4.11272,-1.220117 -0.545786,0.545348 1.746638,3.023122 1.199361,4.139504 -1.046094,0.786405 -3.844758,-1.032407 -4.271409,-0.39518 -0.429118,0.641672 2.302808,2.624485 1.983928,3.826324 -0.87207,0.975104 -3.972798,-0.263289 -4.265966,0.444576 -0.294649,0.710335 2.747743,2.113714 2.695338,3.350626 -0.0016,0.0074 -0.0034,0.01383 -0.0055,0.02074 -0.672848,1.118851 -3.944626,0.511756 -4.093926,1.263092 -0.149794,0.753804 3.108638,1.537741 3.297981,2.761809 -5.44e-4,0.006 -5.44e-4,0.01185 -0.0012,0.01878 -0.439011,1.23049 -3.769125,1.272971 -3.769125,2.038632 0,0.766648 3.337532,0.901997 3.771104,2.060364 0.0012,0.01037 0.0012,0.02223 0.0022,0.0326 -0.204677,1.28631 -3.445801,1.975401 -3.296006,2.725255 0.149299,0.750347 3.42849,0.238094 4.092939,1.276924 0.006,0.02123 0.01136,0.04297 0.01779,0.06422 0.01336,1.293719 -2.993447,2.589413 -2.701765,3.291349 0.29217,0.70589 3.402296,-0.431732 4.261515,0.45248 0.0095,0.01877 0.01878,0.03754 0.02916,0.05632 0.274871,1.265562 -2.427384,3.127351 -2.004197,3.760132 0.425165,0.63525 3.253979,-1.087238 4.268441,-0.386783 0.0129,0.01532 0.02528,0.0321 0.03861,0.04791 0.519096,1.188501 -1.769371,3.542287 -1.230499,4.079732 0.539859,0.539914 2.970704,-1.69285 4.104798,-1.213201 0.01731,0.01434 0.03557,0.02816 0.05287,0.04149 0.741564,1.06402 -1.043618,3.818914 -0.410818,4.241756 0.633295,0.42235 2.574208,-2.226342 3.780483,-1.99121 0.02423,0.01284 0.04941,0.0247 0.07365,0.03803 0.923502,0.905454 -0.282288,3.942901 0.419733,4.232864 0.702999,0.291445 2.087246,-2.678823 3.315774,-2.688702 0.02916,0.0089 0.05833,0.01582 0.08696,0.0247 1.078238,0.713299 0.491411,3.919686 1.23545,4.067384 0.747985,0.148687 1.526636,-3.045353 2.732417,-3.285424 0.02571,0.0024 0.05235,0.0034 0.07858,0.006 1.202812,0.480634 1.25126,3.75173 2.012107,3.75173 0.761833,0 0.901744,-3.286901 2.0393,-3.756177 0.02822,-0.0024 0.05592,-0.0034 0.08509,-0.006 1.267584,0.247976 1.953282,3.432132 2.697804,3.283941 0.746517,-0.148688 0.244227,-3.388169 1.262151,-4.076768 0.03557,-0.01037 0.07165,-0.01976 0.107274,-0.03063 1.285377,0.02914 2.569276,2.988543 3.266346,2.700063 0.704981,-0.291444 -0.423678,-3.378784 0.444935,-4.248672 0.02623,-0.01333 0.05194,-0.0257 0.07711,-0.03951 1.266588,-0.253903 3.120004,2.424425 3.75034,2.003561 0.635266,-0.423832 -1.08318,-3.242943 -0.389078,-4.260529 0.01731,-0.01383 0.03462,-0.02865 0.05193,-0.04298 1.189466,-0.513733 3.541716,1.767932 4.080588,1.23049 0.540843,-0.540904 -1.702147,-2.9757 -1.212709,-4.106408 0.01132,-0.01483 0.02318,-0.03013 0.03462,-0.04494 1.060928,-0.749852 3.825474,1.040311 4.25064,0.407035 0.423675,-0.63525 -2.251876,-2.58694 -1.991844,-3.792239 0.0094,-0.01631 0.01734,-0.0336 0.02623,-0.05038 0.895318,-0.941019 3.95501,0.275144 4.247691,-0.428769 0.292663,-0.706877 -2.71809,-2.100871 -2.69387,-3.333831 0.0053,-0.01631 0.0094,-0.03259 0.01435,-0.04989 0.690158,-1.100574 3.934764,-0.502372 4.083564,-1.250742 0.150793,-0.752323 -3.101221,-1.536259 -3.296501,-2.757364 8.75e-4,-0.0089 8.75e-4,-0.01729 0.0017,-0.02668 0.443457,-1.226046 3.768151,-1.269022 3.768151,-2.034188 z M 77.298485,66.429656 c 0.801375,-0.581901 1.923613,-0.404565 2.50549,0.396662 0.581887,0.801225 0.405392,1.923041 -0.396978,2.504448 -0.801385,0.582889 -1.923613,0.404565 -2.506487,-0.396661 -0.583366,-0.80172 -0.404395,-1.921559 0.397975,-2.504449 z m 7.49573,-0.824443 c -0.08404,0.114108 -0.181436,0.2213 -0.302065,0.309229 -0.567545,0.411974 -1.332346,0.345779 -1.828698,-0.115097 l -2.02497,-2.025294 c -0.585339,-0.584865 -1.612653,-0.665877 -2.282531,-0.17882 l -4.077615,2.959894 c -0.669383,0.486071 -0.909643,1.487355 -0.53392,2.223871 l 1.284381,2.516305 -9.97e-4,0.0043 c 0.307016,0.619937 0.135956,1.38708 -0.442961,1.807452 -0.128529,0.09287 -0.269426,0.155108 -0.413294,0.200554 -1.336301,0.327999 -2.732416,0.505334 -4.170556,0.505334 -1.438634,0 -2.834748,-0.177335 -4.171544,-0.505828 -0.14436,-0.04494 -0.285258,-0.107193 -0.413796,-0.201048 -0.568038,-0.411974 -0.741564,-1.158862 -0.455814,-1.772378 l 1.301691,-2.550389 c 0.375725,-0.736979 0.13497,-1.738758 -0.534413,-2.224335 l -4.078108,-2.960386 c -0.669887,-0.48607 -1.696698,-0.405058 -2.282047,0.179313 l -1.998258,1.998619 -0.0042,-4.92e-4 c -0.49438,0.483601 -1.277962,0.55819 -1.85688,0.137324 -0.120629,-0.08744 -0.217032,-0.193638 -0.301078,-0.307252 -1.472248,-2.355268 -2.394755,-5.086944 -2.593994,-8.017694 0.0042,-0.128926 0.02025,-0.258347 0.06179,-0.387275 0.217033,-0.667359 0.874057,-1.062537 1.546411,-0.981032 l 2.830299,0.449032 c 0.8177,0.129421 1.696205,-0.408515 1.951795,-1.195416 l 1.557782,-4.789573 c 0.256052,-0.786878 -0.138461,-1.737777 -0.87607,-2.112705 l -2.519832,-1.281368 -4.93e-4,-0.0043 c -0.613026,-0.320586 -0.925968,-1.04179 -0.70498,-1.721992 0.04249,-0.131398 0.107776,-0.246492 0.181929,-0.355168 1.818322,-2.166076 4.154736,-3.881155 6.818434,-4.959993 0.132987,-0.04051 0.270915,-0.06964 0.417258,-0.06964 0.702504,0 1.281423,0.502864 1.411441,1.165778 l 0.44741,2.828495 c 0.129525,0.817528 0.912613,1.485876 1.740698,1.485876 h 5.04066 c 0.827582,0 1.611656,-0.668348 1.740699,-1.485876 l 0.441472,-2.789965 0.0032,-0.002 c 0.115688,-0.682178 0.705968,-1.202333 1.421335,-1.202333 0.146824,0 0.284752,0.02914 0.417247,0.06966 2.664191,1.078839 5.000615,2.793918 6.819924,4.959994 0.07313,0.108674 0.13793,0.224757 0.180439,0.355166 0.217033,0.667854 -0.08204,1.373249 -0.673832,1.702236 l -2.552953,1.298658 c -0.737608,0.375913 -1.132614,1.326813 -0.876532,2.113221 l 1.558275,4.789566 c 0.256082,0.787394 1.1336,1.324838 1.951301,1.195417 l 2.79125,-0.443096 0.0042,0.0029 c 0.684713,-0.10077 1.362494,0.29836 1.583485,0.979056 0.04154,0.128434 0.05685,0.257855 0.06179,0.38629 -0.198733,2.930746 -1.121239,5.661435 -2.593487,8.017198 z m -24.598668,1.221105 c 0.58237,-0.801721 1.704116,-0.979057 2.506487,-0.396662 0.801877,0.581902 0.979357,1.702729 0.397482,2.503954 -0.582874,0.800734 -1.705112,0.978564 -2.50699,0.396661 -0.802372,-0.5819 -0.980346,-1.70322 -0.396979,-2.503953 z M 57.039452,50.299426 c 0.942776,0.306263 1.45841,1.317428 1.15239,2.259437 -0.306512,0.941516 -1.318498,1.457224 -2.260781,1.150961 -0.942774,-0.305772 -1.458902,-1.31743 -1.152884,-2.259439 0.306513,-0.942009 1.318499,-1.457224 2.261275,-1.150959 z m 12.961054,-9.898748 c 0.990732,0 1.794089,0.802708 1.794089,1.793127 0,0.990417 -0.803357,1.793125 -1.794089,1.793125 -0.991225,0 -1.794582,-0.802708 -1.794582,-1.793125 0,-0.990419 0.803357,-1.793127 1.794582,-1.793127 z m 14.069445,13.309146 c -0.94327,0.306756 -1.954269,-0.208953 -2.26029,-1.150466 -0.307005,-0.94201 0.20863,-1.953175 1.150913,-2.259438 0.94327,-0.305771 1.955255,0.209444 2.261274,1.150959 0.307006,0.942009 -0.208629,1.953666 -1.151897,2.258945 z"
     id="path87"
     style="stroke-width:0.494176" />
  <g
     id="g217"
     transform="matrix(0.20985112,0,0,0.20968056,59.507605,45.912647)">
    <path
       d="m 33.75,16.854 c -2.757,0 -5,2.243 -5,5 0,2.757 2.243,5 5,5 2.757,0 5,-2.243 5,-5 0,-2.757 -2.243,-5 -5,-5 z m 0,7.5 c -1.378,0 -2.5,-1.121 -2.5,-2.5 0,-1.379 1.122,-2.5 2.5,-2.5 1.378,0 2.5,1.121 2.5,2.5 0,1.379 -1.122,2.5 -2.5,2.5 z"
       id="path168" />
    <path
       d="m 66.25,26.854 c 2.757,0 5,-2.243 5,-5 0,-2.757 -2.243,-5 -5,-5 -2.757,0 -5,2.243 -5,5 0,2.757 2.243,5 5,5 z m 0,-7.5 c 1.378,0 2.5,1.121 2.5,2.5 0,1.379 -1.122,2.5 -2.5,2.5 -1.378,0 -2.5,-1.121 -2.5,-2.5 0,-1.379 1.122,-2.5 2.5,-2.5 z"
       id="path170" />
    <path
       d="m 89.565,39.715 c -1.784,-1.269 -3.82,-2.034 -5.951,-2.26 -1.285,-1.01 -2.357,-2.195 -3.159,-3.536 L 79.021,31.521 C 78.237,30.21 77.705,28.741 77.418,27.172 78.508,24.977 78.959,22.486 78.645,20 77.912,14.192 73.142,9.629 67.303,9.149 c -3.125,-0.256 -6.088,0.61 -8.539,2.45 -2.331,1.75 -4.919,2.695 -7.483,2.734 l -2.962,0.045 c -2.51,0 -5.067,-0.867 -7.396,-2.507 -2.499,-1.758 -5.545,-2.529 -8.61,-2.187 -5.822,0.66 -10.45,5.367 -11.004,11.193 -0.224,2.357 0.204,4.641 1.201,6.684 -0.302,1.423 -0.814,2.756 -1.533,3.959 l -1.434,2.398 c -0.802,1.34 -1.874,2.526 -3.159,3.536 -2.13,0.227 -4.166,0.991 -5.95,2.26 -4.77,3.394 -6.532,9.756 -4.192,15.127 1.229,2.82 3.431,5.08 6.2,6.363 2.645,1.226 4.703,3.057 5.95,5.297 l 1.36,2.441 c 1.248,2.24 1.723,4.954 1.373,7.848 -0.367,3.03 0.396,6.092 2.148,8.62 2.321,3.353 6.174,5.354 10.306,5.354 1.652,0 3.254,-0.321 4.762,-0.955 2.121,-0.893 3.928,-2.342 5.26,-4.153 1.828,-0.792 3.716,-1.219 5.586,-1.248 l 2.021,-0.03 c 1.641,0 3.304,0.315 4.935,0.904 1.352,1.984 3.251,3.574 5.514,4.526 1.508,0.634 3.11,0.955 4.762,0.955 4.132,0 7.985,-2.001 10.306,-5.353 1.752,-2.529 2.515,-5.591 2.148,-8.62 -0.35,-2.895 0.125,-5.608 1.373,-7.849 l 1.36,-2.441 c 1.248,-2.24 3.305,-4.071 5.95,-5.297 2.769,-1.283 4.971,-3.543 6.2,-6.363 2.341,-5.369 0.578,-11.732 -4.191,-15.125 z m -38.357,42.164 -2.059,0.03 c -1.281,0.02 -2.566,0.201 -3.836,0.526 0.01,-0.029 0.025,-0.057 0.035,-0.087 0.929,-2.692 0.887,-5.602 -0.05,-8.25 1.002,0.205 2.012,0.321 3.021,0.321 l 3.02,-0.045 c 1.15,-0.018 2.298,-0.181 3.43,-0.463 -0.992,2.667 -1.062,5.613 -0.145,8.343 -1.136,-0.24 -2.279,-0.375 -3.416,-0.375 z m 18.639,-30.79 c 0.314,3.166 -0.232,6.119 -1.581,8.54 l -0.885,1.587 c -1.349,2.423 -3.572,4.442 -6.429,5.841 -1.741,0.852 -3.236,2.082 -4.4,3.602 -1.704,0.774 -3.479,1.189 -5.25,1.216 L 48.32,71.92 c -1.535,0 -3.081,-0.301 -4.588,-0.866 -1.201,-1.702 -2.796,-3.074 -4.683,-3.997 -2.857,-1.398 -5.08,-3.418 -6.43,-5.841 l -0.884,-1.587 c -1.349,-2.421 -1.896,-5.374 -1.582,-8.54 0.237,-2.385 -0.22,-4.754 -1.308,-6.885 0.339,-1.548 0.902,-2.992 1.678,-4.29 l 0.932,-1.559 c 0.852,-1.424 1.989,-2.699 3.351,-3.799 2.243,-0.188 4.377,-0.97 6.213,-2.289 2.584,-1.854 5.416,-2.858 8.187,-2.9 l 2.006,-0.029 c 2.71,0 5.505,0.916 8.083,2.65 1.555,1.045 3.304,1.717 5.136,1.984 1.708,1.221 3.106,2.7 4.113,4.383 l 0.932,1.559 c 0.776,1.298 1.338,2.742 1.678,4.29 -1.087,2.131 -1.545,4.5 -1.307,6.885 z m 3.129,-9.547 c -0.363,-1.02 -0.808,-1.998 -1.354,-2.911 L 70.69,37.072 c -0.677,-1.132 -1.5,-2.184 -2.451,-3.144 2.811,-0.456 5.405,-1.854 7.323,-4 0.344,1.007 0.775,1.973 1.314,2.875 l 1.434,2.398 c 0.507,0.847 1.109,1.636 1.779,2.376 -2.75,0.493 -5.255,1.893 -7.113,3.965 z M 61.767,15.597 c 1.469,-1.103 3.248,-1.62 5.127,-1.466 3.44,0.283 6.36,3.074 6.791,6.494 0.274,2.17 -0.355,4.263 -1.772,5.895 -1.398,1.61 -3.421,2.552 -5.551,2.584 l -0.121,0.001 c -1.487,0 -2.924,-0.438 -4.157,-1.266 -3.406,-2.29 -7.166,-3.501 -10.873,-3.501 l -2.083,0.029 c -3.796,0.059 -7.608,1.386 -11.026,3.839 -1.24,0.89 -2.705,1.373 -4.237,1.396 l -0.117,0.001 c -2.106,0 -4.129,-0.896 -5.55,-2.457 -1.438,-1.582 -2.118,-3.64 -1.913,-5.795 0.326,-3.43 3.159,-6.31 6.589,-6.698 0.296,-0.034 0.588,-0.05 0.878,-0.05 1.545,0 3.03,0.469 4.292,1.356 3.175,2.236 6.728,3.418 10.273,3.418 l 3.039,-0.045 c 3.63,-0.055 7.229,-1.347 10.411,-3.735 z M 24.501,30.51 c 1.822,2.003 4.242,3.34 6.861,3.853 -0.78,0.842 -1.474,1.743 -2.052,2.71 l -0.932,1.559 c -0.546,0.913 -0.991,1.891 -1.354,2.911 -1.858,-2.072 -4.362,-3.472 -7.113,-3.964 0.67,-0.739 1.272,-1.528 1.779,-2.376 l 1.434,-2.398 c 0.476,-0.796 0.869,-1.641 1.193,-2.519 0.063,0.072 0.118,0.151 0.184,0.224 z m -9.957,26.158 c -1.681,-0.779 -2.967,-2.102 -3.717,-3.824 -1.379,-3.164 -0.301,-7.057 2.507,-9.055 1.299,-0.925 2.812,-1.413 4.374,-1.413 2.723,0 5.237,1.476 6.561,3.852 0.746,1.339 1.06,2.849 0.909,4.367 -0.416,4.186 0.341,8.151 2.189,11.468 l 0.884,1.587 c 1.848,3.317 4.822,6.049 8.599,7.897 1.371,0.671 2.489,1.733 3.235,3.072 1.037,1.86 1.232,4.083 0.537,6.099 -0.705,2.043 -2.203,3.635 -4.219,4.482 -0.891,0.375 -1.841,0.564 -2.823,0.564 -2.492,0 -4.808,-1.196 -6.196,-3.2 -1.054,-1.521 -1.514,-3.358 -1.294,-5.173 0.478,-3.95 -0.204,-7.713 -1.969,-10.882 l -1.36,-2.441 c -1.765,-3.169 -4.607,-5.727 -8.217,-7.4 z m 61.335,9.842 c -1.765,3.169 -2.446,6.932 -1.969,10.883 0.22,1.813 -0.24,3.65 -1.294,5.173 -1.388,2.003 -3.704,3.199 -6.196,3.199 -0.982,0 -1.933,-0.189 -2.823,-0.564 -2.016,-0.848 -3.514,-2.439 -4.219,-4.482 -0.695,-2.016 -0.5,-4.238 0.537,-6.099 0.746,-1.339 1.864,-2.401 3.235,-3.072 3.777,-1.849 6.751,-4.58 8.599,-7.897 l 0.884,-1.587 c 1.848,-3.316 2.604,-7.282 2.189,-11.468 -0.151,-1.519 0.163,-3.028 0.909,-4.367 1.323,-2.376 3.837,-3.852 6.561,-3.852 1.563,0 3.075,0.488 4.374,1.413 2.808,1.998 3.886,5.891 2.507,9.055 -0.75,1.723 -2.036,3.045 -3.717,3.824 -3.61,1.673 -6.451,4.231 -8.217,7.4 z"
       id="path172" />
    <path
       d="m 80,54.331 c 0.76,0.438 1.623,0.67 2.496,0.67 1.783,0 3.443,-0.958 4.334,-2.501 1.378,-2.388 0.557,-5.451 -1.83,-6.831 -0.76,-0.438 -1.623,-0.67 -2.496,-0.67 -1.783,0 -3.443,0.958 -4.334,2.501 -1.378,2.388 -0.557,5.451 1.83,6.831 z m 0.335,-5.581 c 0.445,-0.771 1.276,-1.251 2.169,-1.251 0.435,0 0.866,0.116 1.246,0.335 1.194,0.69 1.604,2.223 0.916,3.416 -0.662,1.147 -2.257,1.584 -3.415,0.916 -1.194,-0.69 -1.605,-2.223 -0.916,-3.416 z"
       id="path174" />
    <path
       d="m 71.08,76.852 c -0.346,-1.29 -1.173,-2.368 -2.329,-3.035 -0.76,-0.439 -1.624,-0.671 -2.497,-0.671 -1.782,0 -3.442,0.958 -4.333,2.5 -1.378,2.388 -0.557,5.451 1.83,6.831 0.76,0.438 1.623,0.67 2.496,0.67 1.783,0 3.443,-0.958 4.334,-2.501 0.667,-1.157 0.844,-2.504 0.499,-3.794 z m -2.665,2.544 c -0.663,1.147 -2.257,1.584 -3.415,0.916 -1.194,-0.69 -1.604,-2.223 -0.916,-3.416 0.445,-0.771 1.276,-1.25 2.168,-1.25 0.435,0 0.866,0.115 1.247,0.336 0.578,0.333 0.992,0.872 1.165,1.518 0.173,0.644 0.085,1.317 -0.249,1.896 z"
       id="path176" />
    <path
       d="m 21.83,47.5 c -0.891,-1.543 -2.551,-2.501 -4.334,-2.501 -0.873,0 -1.736,0.231 -2.497,0.671 -2.387,1.379 -3.208,4.442 -1.83,6.83 0.891,1.542 2.551,2.501 4.333,2.501 0,0 0,0 0,0 0.874,0 1.736,-0.231 2.497,-0.671 2.388,-1.379 3.209,-4.442 1.831,-6.83 z m -6.495,3.75 c -0.689,-1.193 -0.278,-2.726 0.915,-3.415 0.38,-0.22 0.811,-0.336 1.246,-0.336 0.893,0 1.724,0.479 2.169,1.251 0.689,1.193 0.278,2.726 -0.915,3.415 -0.38,0.22 -0.811,0.336 -1.246,0.336 -0.893,0 -1.724,-0.48 -2.169,-1.251 z"
       id="path178" />
    <path
       d="m 31.25,73.815 c -1.156,0.668 -1.984,1.746 -2.33,3.036 -0.346,1.29 -0.168,2.638 0.5,3.794 0.891,1.542 2.551,2.501 4.333,2.501 0,0 0,0 0,0 0.874,0 1.736,-0.231 2.497,-0.671 2.387,-1.379 3.208,-4.442 1.83,-6.83 -0.891,-1.542 -2.551,-2.5 -4.333,-2.5 -0.874,0.001 -1.738,0.232 -2.497,0.67 z m 1.25,2.165 c 0.38,-0.22 0.811,-0.335 1.246,-0.335 0.892,0 1.723,0.479 2.168,1.25 0.689,1.193 0.278,2.726 -0.915,3.415 -0.38,0.22 -0.811,0.336 -1.246,0.336 -0.893,0 -1.724,-0.479 -2.169,-1.251 -0.334,-0.578 -0.422,-1.252 -0.25,-1.896 0.174,-0.645 0.588,-1.185 1.166,-1.519 z"
       id="path180" />
  </g>
</svg>
